<svg xmlns="http://www.w3.org/2000/svg" viewBox="0 0 354.33 354.33"><defs><style>.cls-1{fill:#ff8367;}</style></defs><title>MIYU-META</title><g id="图层_6"><path class="cls-1" d="M215.27,262.69l9.43-4.4-2.5-5.37-9.43,4.4-.15-.31c-7.43,4-14.85,7.88-25.67,8.84l7.09,15.2a13.5,13.5,0,1,0,24.47-11.4Z"/><path class="cls-1" d="M207.1,245.18l-.18-.39,5.42-2.53-2.5-5.37-5.42,2.53-4.79-10.27,9.43-4.4-2.5-5.37-9.43,4.4-16.89-36.25a52.37,52.37,0,1,0-33.48,12,52.7,52.7,0,0,0,8.94-.77l25.71,54.94C190.55,252.72,203.42,247.44,207.1,245.18Zm-55.33-103c-21.17,14.67-21.82,35.35-15,44-15.33-3.75-37.5-26.17-25.83-53.83,7.76-18.4,22.1-24.73,34.66-26C165.93,104.34,167.13,131.59,151.77,142.23Zm16.57,41.39c-9.74,4.11-22.09-1-5.67-18.22,22.77-23.84,10.77-51.67,10.77-51.67,5.83,2.83,21.92,23.55,15.16,45.33C186.27,166.56,178.6,178.73,168.34,183.62Z"/><path class="cls-1" d="M208.1,216.09,213,226.46,203.85,231l2,4.56,6.21-2.81,3,7.8c24.26-15.26,39-41.26,39-71.8,0-41.75-30.15-76.65-70-84.4a73.27,73.27,0,0,1,36.62,63.28c0,24.1-9.93,44.12-28.06,57.5l7,14.81Z"/><path class="cls-1" d="M160.69,219.69c-5.38,1.24-8.17,1.31-13.93,1.31a74.07,74.07,0,0,1-65-38.49c6.65,40.92,42.49,72.27,85.59,72.27a55.22,55.22,0,0,0,9.84-.54Z"/><path class="cls-1" d="M177.17,56.15a121.86,121.86,0,0,0-68.62,21A3.37,3.37,0,0,0,112,82.91c8.21-4.37,17.21-7,26.24-9.06,9.24-2.1,18.67-4,28.18-4.08h.89c55,0,99.7,44.41,99.7,99,0,34.18-16.39,63.59-43,81.39l4.45,9.55-8.89,4.63,2.14,4.87c1.7,3.63,1.19,8.11-.18,11.87a15.23,15.23,0,0,1-8.07,8.32,19.07,19.07,0,0,1-7.12,1.75c-5.81,0-12.92-3.3-15.38-8.57l-8.63-15.91a69.48,69.48,0,0,1-15,1.1c-55,0-99.7-44.41-99.7-99a115.24,115.24,0,0,1,4.09-29.13c2.37-9.07,5.33-18.18,9.79-26.46l.13-.26a3.26,3.26,0,0,0-5.57-3.39,119.76,119.76,0,0,0-20.8,67.63c0,66.72,54.68,121,121.9,121s121.89-54.29,121.89-121S244.38,56.15,177.17,56.15Z"/></g></svg>