<svg xmlns="http://www.w3.org/2000/svg" viewBox="0 0 354.33 354.33"><defs><style>.cls-1{fill:#9ccddc;}</style></defs><title>MIYU-META</title><g id="图层_6"><path class="cls-1" d="M189.11,35.08c2,6.32-5.37,12-12,12s-13.83-5.63-12-12c1.62-5.59,6.41-21.12,12-21.16C182.32,13.88,187.34,29.51,189.11,35.08Z"/><path class="cls-1" d="M224.14,79.72c-.81-.69-1.88-1.61-3.17-2.77-12.35-11.15-29.4-17.32-48-17.38h-.26c-15.42,0-28.17,4.95-42.61,16.53A21.55,21.55,0,0,0,122,91.46a14.77,14.77,0,0,0,4.71,11.65c3.19,3,6.14,4.14,8.9,4.14,5.23,0,9.78-4.17,14-8,1.1-1,2.25-2.07,3.4-3.06,8.89-7.58,16.46-12.12,25.3-15.17,14.52-5,29.49-1.81,39.49,1.76,1.27.45,2.33.84,3.19,1.16,3.26,1.2,4.48,1.66,5.41.07S226.17,81.46,224.14,79.72Z"/><path class="cls-1" d="M295.55,203.59c-7.89-30.24-25.5-60.1-52.33-88.77-14.89-15.91-31.13-23.64-49.65-23.64-26.68,0-45.65,26.84-55.84,41.26-14.34,20.29-30.13,44.26-36,72-7.89,37.07,8.08,72.14,39.73,87.27,19.62,9.37,44.2,9.51,65.76.37,16.13-6.84,28.56-18,35.85-31.94-19.25,29-57.95,37.95-52.27,27.45,5.05-9.33,64.76-31.59,60.41-76.22-2.63-19.79-13.19-37.56-35.09-45.6-27.32-10-54.25,1.58-64,27.61-3.32,8.75-2.59,11.73-.32,13.69,4,3.48,8.93-.17,12.53-2.83.42-.31.78-.58,1-.76a51.76,51.76,0,0,1,11.92-6.21c7.08-2.42,14.16-2,19,1.25a20.35,20.35,0,0,1,7,8.82c4.09,9.13,3.35,20.55-1.91,29.81C196.19,246.1,187.19,253,176.58,256c-15.82,4.55-33.69-1.18-41.58-13.31-9.14-14.08-4.75-32.58-1.32-42.36,4.88-13.91,12.82-27,20.51-39.64,2.19-3.62,4.46-7.35,6.64-11.07,8.93-15.26,19.7-24.8,30.32-26.87,7.63-1.47,15.49.86,23.37,6.95C231.46,142.79,248.89,163.19,260,183c10.41,18.52,13.34,41,8.46,65.06-7,34.72-42.14,67.1-104.69,61.22A88,88,0,0,1,108,282.72c-16.12-17-24.46-49.29-19.82-76.9,3.15-18.72,12-36.48,18.39-48.21,4.33-8,9-16.33,14.85-23.53.42-.52.88-1.05,1.35-1.6,2.71-3.14,6.41-7.44,6.23-13.08a11.15,11.15,0,0,0-6.63-10c-6.55-3.08-16.71-1.33-21.41,2.3-5.41,4.17-9.34,10.78-12.82,16.62-1,1.67-1.93,3.26-2.85,4.68A263.93,263.93,0,0,0,71,157.74c-9.6,19.17-14.8,37.77-15.48,55.27-.92,24,1.5,42.85,7.63,59.48,15.44,41.9,57.37,67.92,109.43,67.92,50.49,0,86.79-16.12,107.91-47.92C297.7,266.6,303.32,233.37,295.55,203.59Z"/><path class="cls-1" d="M177.19,206.43a14,14,0,0,0-3,27.65v11.79h6.56V234a14,14,0,0,0-3.53-27.52Z"/></g></svg>